{
	"patcher" : 	{
		"fileversion" : 1,
		"appversion" : 		{
			"major" : 7,
			"minor" : 3,
			"revision" : 5,
			"architecture" : "x64",
			"modernui" : 1
		}
,
		"openrect" : [ 286.0, 104.0, 571.0, 492.0 ],
		"bgcolor" : [ 0.0, 0.0, 0.0, 1.0 ],
		"bglocked" : 0,
		"openinpresentation" : 1,
		"default_fontsize" : 12.0,
		"default_fontface" : 0,
		"default_fontname" : "Arial",
		"gridonopen" : 1,
		"gridsize" : [ 15.0, 15.0 ],
		"gridsnaponopen" : 1,
		"objectsnaponopen" : 1,
		"statusbarvisible" : 2,
		"toolbarvisible" : 1,
		"lefttoolbarpinned" : 0,
		"toptoolbarpinned" : 0,
		"righttoolbarpinned" : 0,
		"bottomtoolbarpinned" : 0,
		"toolbars_unpinned_last_save" : 0,
		"tallnewobj" : 0,
		"boxanimatetime" : 200,
		"enablehscroll" : 1,
		"enablevscroll" : 1,
		"devicewidth" : 571.0,
		"description" : "",
		"digest" : "",
		"tags" : "",
		"style" : "",
		"subpatcher_template" : "",
		"boxes" : [ 			{
				"box" : 				{
					"id" : "obj-73",
					"maxclass" : "newobj",
					"numinlets" : 1,
					"numoutlets" : 1,
					"outlettype" : [ "" ],
					"patching_rect" : [ 1210.333252, 205.666672, 123.0, 22.0 ],
					"saved_object_attributes" : 					{
						"filename" : "updateDatabase.js",
						"parameter_enable" : 0
					}
,
					"style" : "",
					"text" : "js updateDatabase.js"
				}

			}
, 			{
				"box" : 				{
					"id" : "obj-18",
					"maxclass" : "newobj",
					"numinlets" : 1,
					"numoutlets" : 1,
					"outlettype" : [ "" ],
					"patching_rect" : [ 1006.333313, 241.666672, 73.0, 22.0 ],
					"style" : "",
					"text" : "fromsymbol"
				}

			}
, 			{
				"box" : 				{
					"id" : "obj-7",
					"maxclass" : "newobj",
					"numinlets" : 1,
					"numoutlets" : 1,
					"outlettype" : [ "" ],
					"patching_rect" : [ 1006.333313, 205.666672, 116.0, 22.0 ],
					"saved_object_attributes" : 					{
						"filename" : "queryDatabase.js",
						"parameter_enable" : 0
					}
,
					"style" : "",
					"text" : "js queryDatabase.js"
				}

			}
, 			{
				"box" : 				{
					"id" : "obj-87",
					"maxclass" : "newobj",
					"numinlets" : 0,
					"numoutlets" : 1,
					"outlettype" : [ "" ],
					"patching_rect" : [ 1006.333313, 166.333344, 86.0, 22.0 ],
					"style" : "",
					"text" : "r getDatabase"
				}

			}
, 			{
				"box" : 				{
					"id" : "obj-86",
					"maxclass" : "newobj",
					"numinlets" : 1,
					"numoutlets" : 0,
					"patching_rect" : [ 255.833344, 80.666672, 88.0, 22.0 ],
					"style" : "",
					"text" : "s getDatabase"
				}

			}
, 			{
				"box" : 				{
					"id" : "obj-74",
					"maxclass" : "message",
					"numinlets" : 2,
					"numoutlets" : 1,
					"outlettype" : [ "" ],
					"patching_rect" : [ 178.0, 320.666626, 29.5, 22.0 ],
					"style" : "",
					"text" : "$1"
				}

			}
, 			{
				"box" : 				{
					"id" : "obj-72",
					"maxclass" : "newobj",
					"numinlets" : 1,
					"numoutlets" : 2,
					"outlettype" : [ "", "bang" ],
					"patching_rect" : [ 178.0, 241.666672, 35.0, 22.0 ],
					"saved_object_attributes" : 					{
						"shell" : "(default)",
						"wd" : "(default)"
					}
,
					"style" : "",
					"text" : "shell"
				}

			}
, 			{
				"box" : 				{
					"id" : "obj-71",
					"maxclass" : "newobj",
					"numinlets" : 1,
					"numoutlets" : 1,
					"outlettype" : [ "" ],
					"patching_rect" : [ 178.0, 283.333313, 73.0, 22.0 ],
					"style" : "",
					"text" : "fromsymbol"
				}

			}
, 			{
				"box" : 				{
					"id" : "obj-62",
					"maxclass" : "newobj",
					"numinlets" : 3,
					"numoutlets" : 3,
					"outlettype" : [ "bang", "bang", "" ],
					"patching_rect" : [ 178.0, 144.666672, 183.666672, 22.0 ],
					"style" : "",
					"text" : "select windows macintosh"
				}

			}
, 			{
				"box" : 				{
					"id" : "obj-48",
					"maxclass" : "newobj",
					"numinlets" : 0,
					"numoutlets" : 1,
					"outlettype" : [ "" ],
					"patching_rect" : [ 178.0, 101.000015, 56.0, 22.0 ],
					"style" : "",
					"text" : "r system"
				}

			}
, 			{
				"box" : 				{
					"id" : "obj-36",
					"maxclass" : "message",
					"numinlets" : 2,
					"numoutlets" : 1,
					"outlettype" : [ "" ],
					"patching_rect" : [ 178.0, 204.666672, 50.0, 22.0 ],
					"style" : "",
					"text" : "getmac"
				}

			}
, 			{
				"box" : 				{
					"id" : "obj-31",
					"linecount" : 2,
					"maxclass" : "message",
					"numinlets" : 2,
					"numoutlets" : 1,
					"outlettype" : [ "" ],
					"patching_rect" : [ 477.666687, 67.666672, 133.0, 35.0 ],
					"style" : "",
					"text" : ";\rmax getsystem system"
				}

			}
, 			{
				"box" : 				{
					"id" : "obj-69",
					"maxclass" : "newobj",
					"numinlets" : 2,
					"numoutlets" : 2,
					"outlettype" : [ "bang", "" ],
					"patching_rect" : [ 720.833313, 399.666656, 42.0, 22.0 ],
					"style" : "",
					"text" : "select"
				}

			}
, 			{
				"box" : 				{
					"id" : "obj-68",
					"maxclass" : "newobj",
					"numinlets" : 1,
					"numoutlets" : 3,
					"outlettype" : [ "bang", "bang", "bang" ],
					"patching_rect" : [ 255.833344, 37.333336, 462.666687, 22.0 ],
					"style" : "",
					"text" : "t b b b"
				}

			}
, 			{
				"box" : 				{
					"id" : "obj-67",
					"maxclass" : "newobj",
					"numinlets" : 2,
					"numoutlets" : 2,
					"outlettype" : [ "", "" ],
					"patching_rect" : [ 743.833313, 365.333313, 94.0, 22.0 ],
					"style" : "",
					"text" : "route confirmed"
				}

			}
, 			{
				"box" : 				{
					"id" : "obj-64",
					"maxclass" : "message",
					"numinlets" : 2,
					"numoutlets" : 1,
					"outlettype" : [ "" ],
					"patching_rect" : [ 699.833313, 275.666687, 44.0, 22.0 ],
					"style" : "",
					"text" : "get $1"
				}

			}
, 			{
				"box" : 				{
					"id" : "obj-55",
					"maxclass" : "newobj",
					"numinlets" : 1,
					"numoutlets" : 1,
					"outlettype" : [ "" ],
					"patching_rect" : [ 699.833313, 241.666672, 59.0, 22.0 ],
					"style" : "",
					"text" : "tosymbol"
				}

			}
, 			{
				"box" : 				{
					"id" : "obj-54",
					"maxclass" : "message",
					"numinlets" : 2,
					"numoutlets" : 1,
					"outlettype" : [ "" ],
					"patching_rect" : [ 699.833313, 204.666672, 63.0, 22.0 ],
					"style" : "",
					"text" : "confirmed"
				}

			}
, 			{
				"box" : 				{
					"id" : "obj-26",
					"linecount" : 2,
					"maxclass" : "comment",
					"numinlets" : 1,
					"numoutlets" : 0,
					"patching_rect" : [ 36.00008, 432.666656, 150.0, 33.0 ],
					"style" : "",
					"text" : "^^^Internal record of authorization.",
					"textjustification" : 1
				}

			}
, 			{
				"box" : 				{
					"data" : 					{
						"confirmed" : "C02PH5CJG3QD"
					}
,
					"fontsize" : 18.0,
					"id" : "obj-57",
					"maxclass" : "newobj",
					"numinlets" : 2,
					"numoutlets" : 4,
					"outlettype" : [ "dictionary", "", "", "" ],
					"patching_rect" : [ 699.833313, 311.666626, 223.0, 29.0 ],
					"saved_object_attributes" : 					{
						"embed" : 1,
						"parameter_enable" : 0
					}
,
					"style" : "",
					"text" : "dict authorized @embed 1"
				}

			}
, 			{
				"box" : 				{
					"id" : "obj-56",
					"linecount" : 3,
					"maxclass" : "message",
					"numinlets" : 2,
					"numoutlets" : 1,
					"outlettype" : [ "" ],
					"patching_rect" : [ 1413.000122, 345.666656, 302.0, 49.0 ],
					"style" : "",
					"text" : "set https://api.airtable.com/v0/appWe5H7crfICMn9W/Table%201?api_key=keyBmioK1iVVvhEES"
				}

			}
, 			{
				"box" : 				{
					"id" : "obj-52",
					"maxclass" : "newobj",
					"numinlets" : 1,
					"numoutlets" : 1,
					"outlettype" : [ "" ],
					"patching_rect" : [ 1244.333374, 765.666687, 81.0, 22.0 ],
					"style" : "",
					"text" : "loadmess set"
				}

			}
, 			{
				"box" : 				{
					"id" : "obj-50",
					"maxclass" : "newobj",
					"numinlets" : 1,
					"numoutlets" : 1,
					"outlettype" : [ "" ],
					"patching_rect" : [ 1362.333374, 765.666687, 73.0, 22.0 ],
					"style" : "",
					"text" : "fromsymbol"
				}

			}
, 			{
				"box" : 				{
					"id" : "obj-49",
					"maxclass" : "message",
					"numinlets" : 2,
					"numoutlets" : 1,
					"outlettype" : [ "" ],
					"patching_rect" : [ 1041.333374, 569.666626, 105.0, 22.0 ],
					"style" : "",
					"text" : "MZBCNXVDGDQ"
				}

			}
, 			{
				"box" : 				{
					"fontsize" : 18.0,
					"id" : "obj-46",
					"maxclass" : "comment",
					"numinlets" : 1,
					"numoutlets" : 0,
					"patching_rect" : [ 736.833313, 1059.666748, 214.0, 27.0 ],
					"presentation" : 1,
					"presentation_rect" : [ 220.5, 241.0, 124.0, 27.0 ],
					"style" : "",
					"text" : "EMAIL",
					"textcolor" : [ 1.0, 1.0, 1.0, 1.0 ],
					"textjustification" : 1
				}

			}
, 			{
				"box" : 				{
					"id" : "obj-47",
					"maxclass" : "textedit",
					"numinlets" : 1,
					"numoutlets" : 4,
					"outlettype" : [ "", "int", "", "" ],
					"parameter_enable" : 0,
					"patching_rect" : [ 798.333313, 1109.666626, 100.0, 50.0 ],
					"presentation" : 1,
					"presentation_rect" : [ 131.0, 280.0, 303.0, 23.0 ],
					"style" : "",
					"textjustification" : 1
				}

			}
, 			{
				"box" : 				{
					"fontsize" : 18.0,
					"id" : "obj-44",
					"maxclass" : "comment",
					"numinlets" : 1,
					"numoutlets" : 0,
					"patching_rect" : [ 1221.333374, 1059.666748, 214.0, 27.0 ],
					"presentation" : 1,
					"presentation_rect" : [ 301.5, 153.0, 124.0, 27.0 ],
					"style" : "",
					"text" : "LAST NAME",
					"textcolor" : [ 1.0, 1.0, 1.0, 1.0 ],
					"textjustification" : 1
				}

			}
, 			{
				"box" : 				{
					"id" : "obj-41",
					"maxclass" : "textedit",
					"numinlets" : 1,
					"numoutlets" : 4,
					"outlettype" : [ "", "int", "", "" ],
					"parameter_enable" : 0,
					"patching_rect" : [ 1278.333374, 1104.666626, 100.0, 50.0 ],
					"presentation" : 1,
					"presentation_rect" : [ 293.0, 192.0, 141.0, 23.0 ],
					"style" : "",
					"textjustification" : 1
				}

			}
, 			{
				"box" : 				{
					"id" : "obj-40",
					"maxclass" : "textedit",
					"numinlets" : 1,
					"numoutlets" : 4,
					"outlettype" : [ "", "int", "", "" ],
					"parameter_enable" : 0,
					"patching_rect" : [ 1029.333374, 1109.666626, 100.0, 50.0 ],
					"presentation" : 1,
					"presentation_rect" : [ 131.0, 192.0, 141.0, 23.0 ],
					"style" : "",
					"textjustification" : 1
				}

			}
, 			{
				"box" : 				{
					"id" : "obj-38",
					"linecount" : 4,
					"maxclass" : "message",
					"numinlets" : 2,
					"numoutlets" : 1,
					"outlettype" : [ "" ],
					"patching_rect" : [ 975.333313, 710.666687, 50.0, 62.0 ],
					"style" : "",
					"text" : "testSerial 11AQPOITYU"
				}

			}
, 			{
				"box" : 				{
					"id" : "obj-35",
					"maxclass" : "message",
					"numinlets" : 2,
					"numoutlets" : 1,
					"outlettype" : [ "" ],
					"patching_rect" : [ 1006.333313, 569.666626, 29.5, 22.0 ],
					"style" : "",
					"text" : "DG"
				}

			}
, 			{
				"box" : 				{
					"id" : "obj-32",
					"maxclass" : "message",
					"numinlets" : 2,
					"numoutlets" : 1,
					"outlettype" : [ "" ],
					"patching_rect" : [ 916.333313, 569.666626, 85.0, 22.0 ],
					"style" : "",
					"text" : "11AQPOITYU"
				}

			}
, 			{
				"box" : 				{
					"id" : "obj-30",
					"maxclass" : "message",
					"numinlets" : 2,
					"numoutlets" : 1,
					"outlettype" : [ "" ],
					"patching_rect" : [ 1275.333374, 614.666687, 75.0, 22.0 ],
					"style" : "",
					"text" : "autowatch 1"
				}

			}
, 			{
				"box" : 				{
					"id" : "obj-15",
					"maxclass" : "newobj",
					"numinlets" : 1,
					"numoutlets" : 1,
					"outlettype" : [ "" ],
					"patching_rect" : [ 1006.333313, 661.666687, 108.0, 22.0 ],
					"style" : "",
					"text" : "prepend testSerial"
				}

			}
, 			{
				"box" : 				{
					"id" : "obj-192",
					"maxclass" : "message",
					"numinlets" : 2,
					"numoutlets" : 1,
					"outlettype" : [ "" ],
					"patching_rect" : [ 1449.333374, 765.666687, 50.0, 22.0 ],
					"style" : ""
				}

			}
, 			{
				"box" : 				{
					"bgcolor" : [ 0.376471, 0.384314, 0.4, 0.0 ],
					"bgcolor2" : [ 0.376471, 0.384314, 0.4, 0.0 ],
					"bgfillcolor_angle" : 270.0,
					"bgfillcolor_autogradient" : 0.0,
					"bgfillcolor_color" : [ 0.290196, 0.309804, 0.301961, 0.0 ],
					"bgfillcolor_color1" : [ 0.376471, 0.384314, 0.4, 0.0 ],
					"bgfillcolor_color2" : [ 0.290196, 0.309804, 0.301961, 1.0 ],
					"bgfillcolor_proportion" : 0.39,
					"bgfillcolor_type" : "color",
					"gradient" : 1,
					"id" : "obj-189",
					"ignoreclick" : 1,
					"maxclass" : "message",
					"numinlets" : 2,
					"numoutlets" : 1,
					"outlettype" : [ "" ],
					"patching_rect" : [ 1244.333374, 836.666687, 137.0, 22.0 ],
					"presentation" : 1,
					"presentation_rect" : [ 59.5, 445.0, 446.0, 22.0 ],
					"style" : "",
					"textjustification" : 1
				}

			}
, 			{
				"box" : 				{
					"id" : "obj-187",
					"maxclass" : "button",
					"numinlets" : 1,
					"numoutlets" : 1,
					"outlettype" : [ "bang" ],
					"patching_rect" : [ 1474.333374, 614.666687, 24.0, 24.0 ],
					"style" : ""
				}

			}
, 			{
				"box" : 				{
					"id" : "obj-185",
					"maxclass" : "message",
					"numinlets" : 2,
					"numoutlets" : 1,
					"outlettype" : [ "" ],
					"patching_rect" : [ 1362.333374, 614.666687, 79.0, 22.0 ],
					"style" : "",
					"text" : "post_to_max"
				}

			}
, 			{
				"box" : 				{
					"id" : "obj-183",
					"maxclass" : "newobj",
					"numinlets" : 1,
					"numoutlets" : 2,
					"outlettype" : [ "", "" ],
					"patching_rect" : [ 1362.333374, 698.666687, 137.0, 22.0 ],
					"saved_object_attributes" : 					{
						"filename" : "anotherDictAttempt.js",
						"parameter_enable" : 0
					}
,
					"style" : "",
					"text" : "js anotherDictAttempt.js"
				}

			}
, 			{
				"box" : 				{
					"id" : "obj-105",
					"maxclass" : "message",
					"numinlets" : 2,
					"numoutlets" : 1,
					"outlettype" : [ "" ],
					"patching_rect" : [ 1101.333374, 276.666687, 37.0, 22.0 ],
					"style" : "",
					"text" : "clear"
				}

			}
, 			{
				"box" : 				{
					"id" : "obj-61",
					"maxclass" : "newobj",
					"numinlets" : 2,
					"numoutlets" : 2,
					"outlettype" : [ "", "" ],
					"patching_rect" : [ 1006.333313, 475.666656, 67.0, 22.0 ],
					"style" : "",
					"text" : "route body"
				}

			}
, 			{
				"box" : 				{
					"id" : "obj-58",
					"maxclass" : "newobj",
					"numinlets" : 1,
					"numoutlets" : 0,
					"patching_rect" : [ 1006.333313, 515.666626, 73.0, 22.0 ],
					"style" : "",
					"text" : "print unload"
				}

			}
, 			{
				"box" : 				{
					"id" : "obj-53",
					"maxclass" : "button",
					"numinlets" : 1,
					"numoutlets" : 1,
					"outlettype" : [ "bang" ],
					"patching_rect" : [ 1157.333374, 276.666687, 24.0, 24.0 ],
					"style" : ""
				}

			}
, 			{
				"box" : 				{
					"id" : "obj-51",
					"maxclass" : "newobj",
					"numinlets" : 1,
					"numoutlets" : 1,
					"outlettype" : [ "" ],
					"patching_rect" : [ 1006.333313, 429.666656, 49.0, 22.0 ],
					"style" : "",
					"text" : "dict.iter"
				}

			}
, 			{
				"box" : 				{
					"data" : 					{
						"body" : "{\"records\":[{\"id\":\"rec03zLuZOq45Y1qY\",\"fields\":{\"authorization code\":\"22ZBCNXVGDQ\",\"inUse\":\"false\",\"NumOfKeys\":\"1\"},\"createdTime\":\"2018-12-11T17:46:50.000Z\"},{\"id\":\"rec04EIc9ockkfBp0\",\"fields\":{\"authorization code\":\"DFBSKOPNBFDS%$\",\"inUse\":\"false\",\"NumOfKeys\":\"1\"},\"createdTime\":\"2018-12-08T16:05:57.000Z\"},{\"id\":\"rec4YxZyGymPjVyNa\",\"fields\":{\"authorization code\":\"R$DFGUISDHGDFCXV\",\"inUse\":\"false\",\"NumOfKeys\":\"1\"},\"createdTime\":\"2018-12-08T16:05:57.000Z\"},{\"id\":\"rec5sR9wZYhtc531l\",\"fields\":{\"authorization code\":\"23VBN55U7UU\",\"inUse\":\"false\",\"NumOfKeys\":\"1\"},\"createdTime\":\"2018-12-08T16:08:17.000Z\"},{\"id\":\"recAOH5dbH7f5PudE\",\"fields\":{\"authorization code\":\"98PL45UHBHJ12\",\"inUse\":\"false\",\"NumOfKeys\":\"1\"},\"createdTime\":\"2018-12-11T17:45:56.000Z\"},{\"id\":\"recGAbmsSgTYYfSb6\",\"fields\":{\"KeysUsed\":\"0\",\"authorization code\":\"PumpkinButter\",\"inUse\":\"false\",\"NumOfKeys\":\"25\"},\"createdTime\":\"2018-12-11T17:48:21.000Z\"},{\"id\":\"recJMDYNc3AtedwUv\",\"fields\":{\"authorization code\":\"99T6WERZUUU\",\"inUse\":\"false\",\"NumOfKeys\":\"1\"},\"createdTime\":\"2018-12-08T16:07:39.000Z\"},{\"id\":\"recKELRK4izCUocTC\",\"fields\":{\"authorization code\":\"VGYTYUGHJ8\",\"inUse\":\"false\",\"NumOfKeys\":\"1\"},\"createdTime\":\"2018-12-08T16:07:32.000Z\"},{\"id\":\"recL9LsGBzrV1oQO5\",\"fields\":{\"authorization code\":\"11AQPOITYU\",\"inUse\":\"true\",\"NumOfKeys\":\"1\"},\"createdTime\":\"2018-12-08T16:08:07.000Z\"},{\"id\":\"recLlp2xdz3IDOe3p\",\"fields\":{\"authorization code\":\"WW7YTYUQHJ9\",\"inUse\":\"false\",\"NumOfKeys\":\"1\"},\"createdTime\":\"2018-12-08T16:08:50.000Z\"},{\"id\":\"recahAepW1sAFUIFs\",\"fields\":{\"authorization code\":\"OKMNJIUHBVGY\",\"inUse\":\"false\",\"NumOfKeys\":\"1\"},\"createdTime\":\"2018-12-08T16:05:57.000Z\"},{\"id\":\"recbw1fwkOvtK2W7e\",\"fields\":{\"KeysUsed\":\"0\",\"authorization code\":\"PicklesAndGravy\",\"inUse\":\"false\",\"NumOfKeys\":\"25\"},\"createdTime\":\"2018-12-11T17:49:00.000Z\"},{\"id\":\"recgar7JSzMwZZaUh\",\"fields\":{\"authorization code\":\"VGYTYUQHJ9\",\"inUse\":\"false\",\"NumOfKeys\":\"1\"},\"createdTime\":\"2018-12-08T16:08:44.000Z\"},{\"id\":\"recmedLMuj3LxmshS\",\"fields\":{\"authorization code\":\"23VBN55Y7UW$Z\",\"inUse\":\"false\",\"NumOfKeys\":\"1\"},\"createdTime\":\"2018-12-08T16:08:26.000Z\"},{\"id\":\"recsOziUX41qqIts6\",\"fields\":{\"authorization code\":\"MZBCNXVDGDQ\",\"inUse\":\"false\",\"NumOfKeys\":\"1\"},\"createdTime\":\"2018-12-08T16:07:48.000Z\"},{\"id\":\"rectHxIUyRCuJXmw4\",\"fields\":{\"authorization code\":\"98PL45QHBHJ16\",\"inUse\":\"false\",\"NumOfKeys\":\"1\"},\"createdTime\":\"2018-12-11T17:46:05.000Z\"}]}",
						"header" : "HTTP/1.1 200 OK\r\naccess-control-allow-headers: authorization,content-length,content-type,user-agent,x-airtable-application-id,x-airtable-user-agent,x-api-version,x-requested-with\r\naccess-control-allow-methods: DELETE,GET,OPTIONS,PATCH,POST,PUT\r\naccess-control-allow-origin: *\r\nContent-Type: application/json; charset=utf-8\r\nDate: Tue, 11 Dec 2018 22:42:06 GMT\r\nETag: W/\"95e-x1d60AQSm8lz7F87u39CMVviJck\"\r\nServer: Tengine\r\nStrict-Transport-Security: max-age=31536000; includeSubDomains; preload\r\nVary: Accept-Encoding\r\nContent-Length: 2398\r\nConnection: keep-alive\r\n\r\n",
						"status" : 200,
						"connect_code" : 0,
						"url" : "https://api.airtable.com/v0/appWe5H7crfICMn9W/Table%201?api_key=keyBmioK1iVVvhEES",
						"file_time" : -1,
						"total_time" : 0.131076,
						"size_upload" : 0.0,
						"size_download" : 2398.0,
						"content_length_download" : 2398.0,
						"content_length_upload" : -1.0,
						"content_type" : "application/json; charset=utf-8"
					}
,
					"id" : "obj-43",
					"maxclass" : "newobj",
					"numinlets" : 2,
					"numoutlets" : 4,
					"outlettype" : [ "dictionary", "", "", "" ],
					"patching_rect" : [ 1006.333313, 372.666656, 175.0, 22.0 ],
					"saved_object_attributes" : 					{
						"embed" : 1,
						"parameter_enable" : 0
					}
,
					"style" : "",
					"text" : "dict @name serials @embed 1"
				}

			}
, 			{
				"box" : 				{
					"id" : "obj-42",
					"linecount" : 4,
					"maxclass" : "message",
					"numinlets" : 2,
					"numoutlets" : 1,
					"outlettype" : [ "" ],
					"patching_rect" : [ 910.833313, 372.666656, 50.0, 62.0 ],
					"style" : "",
					"text" : "dictionary u539001449"
				}

			}
, 			{
				"box" : 				{
					"id" : "obj-33",
					"maxclass" : "newobj",
					"numinlets" : 1,
					"numoutlets" : 2,
					"outlettype" : [ "dictionary", "" ],
					"patching_rect" : [ 1006.333313, 276.666687, 47.0, 22.0 ],
					"style" : "",
					"text" : "maxurl"
				}

			}
, 			{
				"box" : 				{
					"id" : "obj-16",
					"maxclass" : "newobj",
					"numinlets" : 1,
					"numoutlets" : 2,
					"outlettype" : [ "bang", "bang" ],
					"patching_rect" : [ 423.333344, 550.666626, 34.0, 22.0 ],
					"style" : "",
					"text" : "t b b"
				}

			}
, 			{
				"box" : 				{
					"id" : "obj-2",
					"maxclass" : "newobj",
					"numinlets" : 1,
					"numoutlets" : 1,
					"outlettype" : [ "" ],
					"patching_rect" : [ 423.333344, 403.666656, 81.0, 22.0 ],
					"style" : "",
					"text" : "loadmess set"
				}

			}
, 			{
				"box" : 				{
					"id" : "obj-23",
					"maxclass" : "newobj",
					"numinlets" : 1,
					"numoutlets" : 1,
					"outlettype" : [ "" ],
					"patching_rect" : [ 748.333313, 569.666626, 108.0, 22.0 ],
					"style" : "",
					"text" : "prepend capitalize"
				}

			}
, 			{
				"box" : 				{
					"id" : "obj-20",
					"maxclass" : "newobj",
					"numinlets" : 1,
					"numoutlets" : 1,
					"outlettype" : [ "" ],
					"patching_rect" : [ 748.333313, 603.666687, 93.0, 22.0 ],
					"saved_object_attributes" : 					{
						"filename" : "upperCase.js",
						"parameter_enable" : 0
					}
,
					"style" : "",
					"text" : "js upperCase.js"
				}

			}
, 			{
				"box" : 				{
					"id" : "obj-4",
					"maxclass" : "button",
					"numinlets" : 1,
					"numoutlets" : 1,
					"outlettype" : [ "bang" ],
					"patching_rect" : [ 748.333313, 710.666687, 24.0, 24.0 ],
					"style" : ""
				}

			}
, 			{
				"box" : 				{
					"id" : "obj-1",
					"maxclass" : "newobj",
					"numinlets" : 2,
					"numoutlets" : 2,
					"outlettype" : [ "bang", "" ],
					"patching_rect" : [ 748.333313, 661.666687, 104.0, 22.0 ],
					"style" : "",
					"text" : "select 98FQ6D59"
				}

			}
, 			{
				"box" : 				{
					"id" : "obj-39",
					"linecount" : 4,
					"maxclass" : "message",
					"numinlets" : 2,
					"numoutlets" : 1,
					"outlettype" : [ "" ],
					"patching_rect" : [ 179.333328, 700.666687, 50.0, 62.0 ],
					"style" : "",
					"text" : "EF2-87HHI7176EF2PU111JR"
				}

			}
, 			{
				"box" : 				{
					"id" : "obj-37",
					"maxclass" : "newobj",
					"numinlets" : 1,
					"numoutlets" : 1,
					"outlettype" : [ "" ],
					"patching_rect" : [ 210.333328, 555.666626, 73.0, 22.0 ],
					"style" : "",
					"text" : "fromsymbol"
				}

			}
, 			{
				"box" : 				{
					"id" : "obj-28",
					"maxclass" : "newobj",
					"numinlets" : 1,
					"numoutlets" : 1,
					"outlettype" : [ "" ],
					"patching_rect" : [ 278.666687, 438.166656, 97.0, 22.0 ],
					"style" : "",
					"text" : "prepend encode"
				}

			}
, 			{
				"box" : 				{
					"id" : "obj-27",
					"maxclass" : "newobj",
					"numinlets" : 1,
					"numoutlets" : 1,
					"outlettype" : [ "" ],
					"patching_rect" : [ 210.333328, 482.666656, 66.0, 22.0 ],
					"saved_object_attributes" : 					{
						"filename" : "encoder",
						"parameter_enable" : 0
					}
,
					"style" : "",
					"text" : "js encoder"
				}

			}
, 			{
				"box" : 				{
					"id" : "obj-25",
					"maxclass" : "newobj",
					"numinlets" : 1,
					"numoutlets" : 2,
					"outlettype" : [ "", "" ],
					"patching_rect" : [ 748.333313, 836.666687, 69.0, 22.0 ],
					"save" : [ "#N", "thispatcher", ";", "#Q", "end", ";" ],
					"style" : "",
					"text" : "thispatcher"
				}

			}
, 			{
				"box" : 				{
					"id" : "obj-24",
					"maxclass" : "message",
					"numinlets" : 2,
					"numoutlets" : 1,
					"outlettype" : [ "" ],
					"patching_rect" : [ 748.333313, 799.666687, 47.0, 22.0 ],
					"style" : "",
					"text" : "wclose"
				}

			}
, 			{
				"box" : 				{
					"id" : "obj-22",
					"maxclass" : "newobj",
					"numinlets" : 2,
					"numoutlets" : 1,
					"outlettype" : [ "bang" ],
					"patching_rect" : [ 748.333313, 757.666687, 63.0, 22.0 ],
					"style" : "",
					"text" : "delay 500"
				}

			}
, 			{
				"box" : 				{
					"id" : "obj-21",
					"maxclass" : "message",
					"numinlets" : 2,
					"numoutlets" : 1,
					"outlettype" : [ "" ],
					"patching_rect" : [ 526.333313, 403.666656, 70.0, 22.0 ],
					"style" : "",
					"text" : "set BOOM!"
				}

			}
, 			{
				"box" : 				{
					"id" : "obj-19",
					"maxclass" : "message",
					"numinlets" : 2,
					"numoutlets" : 1,
					"outlettype" : [ "" ],
					"patching_rect" : [ 495.333344, 597.666687, 50.0, 22.0 ],
					"style" : "",
					"text" : "bang"
				}

			}
, 			{
				"box" : 				{
					"id" : "obj-17",
					"maxclass" : "newobj",
					"numinlets" : 2,
					"numoutlets" : 2,
					"outlettype" : [ "", "" ],
					"patching_rect" : [ 526.333313, 550.666626, 61.0, 22.0 ],
					"style" : "",
					"text" : "route text"
				}

			}
, 			{
				"box" : 				{
					"id" : "obj-14",
					"maxclass" : "message",
					"numinlets" : 2,
					"numoutlets" : 1,
					"outlettype" : [ "" ],
					"patching_rect" : [ 423.333344, 520.666626, 60.0, 22.0 ],
					"presentation" : 1,
					"presentation_rect" : [ 254.5, 410.0, 56.0, 22.0 ],
					"style" : "",
					"text" : "SUBMIT",
					"textcolor" : [ 1.0, 1.0, 1.0, 1.0 ]
				}

			}
, 			{
				"box" : 				{
					"id" : "obj-12",
					"maxclass" : "textedit",
					"numinlets" : 1,
					"numoutlets" : 4,
					"outlettype" : [ "", "int", "", "" ],
					"parameter_enable" : 0,
					"patching_rect" : [ 526.333313, 468.666656, 100.0, 50.0 ],
					"presentation" : 1,
					"presentation_rect" : [ 93.0, 370.0, 379.0, 23.0 ],
					"style" : "",
					"textjustification" : 1
				}

			}
, 			{
				"box" : 				{
					"fontsize" : 18.0,
					"id" : "obj-11",
					"linecount" : 3,
					"maxclass" : "comment",
					"numinlets" : 1,
					"numoutlets" : 0,
					"patching_rect" : [ 475.333344, 924.166687, 214.0, 67.0 ],
					"presentation" : 1,
					"presentation_rect" : [ 131.0, 328.0, 303.0, 27.0 ],
					"style" : "",
					"text" : "ENTER AUTHORIZATION CODE:",
					"textcolor" : [ 1.0, 1.0, 1.0, 1.0 ],
					"textjustification" : 1
				}

			}
, 			{
				"box" : 				{
					"id" : "obj-10",
					"maxclass" : "newobj",
					"numinlets" : 1,
					"numoutlets" : 1,
					"outlettype" : [ "bang" ],
					"patching_rect" : [ 255.833344, 2.666666, 60.0, 22.0 ],
					"style" : "",
					"text" : "loadbang"
				}

			}
, 			{
				"box" : 				{
					"fontsize" : 18.0,
					"id" : "obj-8",
					"maxclass" : "comment",
					"numinlets" : 1,
					"numoutlets" : 0,
					"patching_rect" : [ 975.333313, 1059.666748, 214.0, 27.0 ],
					"presentation" : 1,
					"presentation_rect" : [ 139.5, 153.0, 124.0, 27.0 ],
					"style" : "",
					"text" : "FIRST NAME",
					"textcolor" : [ 1.0, 1.0, 1.0, 1.0 ],
					"textjustification" : 1
				}

			}
, 			{
				"box" : 				{
					"fontsize" : 24.0,
					"id" : "obj-6",
					"linecount" : 2,
					"maxclass" : "comment",
					"numinlets" : 1,
					"numoutlets" : 0,
					"patching_rect" : [ 64.833336, 927.666687, 379.0, 60.0 ],
					"presentation" : 1,
					"presentation_linecount" : 2,
					"presentation_rect" : [ 93.0, 38.0, 379.0, 60.0 ],
					"style" : "",
					"text" : "YOU'RE ALMOST THERE!\nAUTHORIZATION NEEDED",
					"textcolor" : [ 1.0, 1.0, 1.0, 1.0 ],
					"textjustification" : 1
				}

			}
, 			{
				"box" : 				{
					"id" : "obj-5",
					"maxclass" : "message",
					"numinlets" : 2,
					"numoutlets" : 1,
					"outlettype" : [ "" ],
					"patching_rect" : [ 260.333344, 204.666672, 423.0, 22.0 ],
					"style" : "",
					"text" : "system_profiler SPHardwareDataType | awk '/Serial Number/ {print $NF}'"
				}

			}
, 			{
				"box" : 				{
					"id" : "obj-3",
					"maxclass" : "newobj",
					"numinlets" : 1,
					"numoutlets" : 2,
					"outlettype" : [ "", "bang" ],
					"patching_rect" : [ 260.333344, 241.666672, 35.0, 22.0 ],
					"saved_object_attributes" : 					{
						"shell" : "(default)",
						"wd" : "(default)"
					}
,
					"style" : "",
					"text" : "shell"
				}

			}
 ],
		"lines" : [ 			{
				"patchline" : 				{
					"destination" : [ "obj-4", 0 ],
					"source" : [ "obj-1", 0 ]
				}

			}
, 			{
				"patchline" : 				{
					"destination" : [ "obj-68", 0 ],
					"source" : [ "obj-10", 0 ]
				}

			}
, 			{
				"patchline" : 				{
					"destination" : [ "obj-43", 0 ],
					"midpoints" : [ 1110.833374, 335.166672, 1015.833313, 335.166672 ],
					"source" : [ "obj-105", 0 ]
				}

			}
, 			{
				"patchline" : 				{
					"destination" : [ "obj-17", 0 ],
					"source" : [ "obj-12", 0 ]
				}

			}
, 			{
				"patchline" : 				{
					"destination" : [ "obj-16", 0 ],
					"source" : [ "obj-14", 0 ]
				}

			}
, 			{
				"patchline" : 				{
					"destination" : [ "obj-183", 0 ],
					"midpoints" : [ 1015.833313, 690.666672, 1371.833374, 690.666672 ],
					"order" : 0,
					"source" : [ "obj-15", 0 ]
				}

			}
, 			{
				"patchline" : 				{
					"destination" : [ "obj-38", 1 ],
					"order" : 1,
					"source" : [ "obj-15", 0 ]
				}

			}
, 			{
				"patchline" : 				{
					"destination" : [ "obj-12", 0 ],
					"midpoints" : [ 447.833344, 580.666672, 500.833336, 580.666672, 500.833336, 457.666672, 535.833313, 457.666672 ],
					"source" : [ "obj-16", 1 ]
				}

			}
, 			{
				"patchline" : 				{
					"destination" : [ "obj-19", 0 ],
					"midpoints" : [ 432.833344, 589.666672, 504.833344, 589.666672 ],
					"source" : [ "obj-16", 0 ]
				}

			}
, 			{
				"patchline" : 				{
					"destination" : [ "obj-19", 1 ],
					"source" : [ "obj-17", 0 ]
				}

			}
, 			{
				"patchline" : 				{
					"destination" : [ "obj-33", 0 ],
					"source" : [ "obj-18", 0 ]
				}

			}
, 			{
				"patchline" : 				{
					"destination" : [ "obj-192", 1 ],
					"source" : [ "obj-183", 1 ]
				}

			}
, 			{
				"patchline" : 				{
					"destination" : [ "obj-50", 0 ],
					"source" : [ "obj-183", 0 ]
				}

			}
, 			{
				"patchline" : 				{
					"destination" : [ "obj-183", 0 ],
					"source" : [ "obj-185", 0 ]
				}

			}
, 			{
				"patchline" : 				{
					"destination" : [ "obj-183", 0 ],
					"midpoints" : [ 1483.833374, 668.166672, 1371.833374, 668.166672 ],
					"source" : [ "obj-187", 0 ]
				}

			}
, 			{
				"patchline" : 				{
					"destination" : [ "obj-23", 0 ],
					"midpoints" : [ 504.833344, 629.666672, 631.333336, 629.666672, 631.333336, 558.666672, 757.833313, 558.666672 ],
					"source" : [ "obj-19", 0 ]
				}

			}
, 			{
				"patchline" : 				{
					"destination" : [ "obj-12", 0 ],
					"midpoints" : [ 432.833344, 446.666672, 535.833313, 446.666672 ],
					"source" : [ "obj-2", 0 ]
				}

			}
, 			{
				"patchline" : 				{
					"destination" : [ "obj-1", 0 ],
					"order" : 1,
					"source" : [ "obj-20", 0 ]
				}

			}
, 			{
				"patchline" : 				{
					"destination" : [ "obj-15", 0 ],
					"midpoints" : [ 757.833313, 640.166672, 1015.833313, 640.166672 ],
					"order" : 0,
					"source" : [ "obj-20", 0 ]
				}

			}
, 			{
				"patchline" : 				{
					"destination" : [ "obj-12", 0 ],
					"source" : [ "obj-21", 0 ]
				}

			}
, 			{
				"patchline" : 				{
					"destination" : [ "obj-24", 0 ],
					"source" : [ "obj-22", 0 ]
				}

			}
, 			{
				"patchline" : 				{
					"destination" : [ "obj-20", 0 ],
					"source" : [ "obj-23", 0 ]
				}

			}
, 			{
				"patchline" : 				{
					"destination" : [ "obj-25", 0 ],
					"source" : [ "obj-24", 0 ]
				}

			}
, 			{
				"patchline" : 				{
					"destination" : [ "obj-37", 0 ],
					"source" : [ "obj-27", 0 ]
				}

			}
, 			{
				"patchline" : 				{
					"destination" : [ "obj-27", 0 ],
					"midpoints" : [ 288.166687, 471.500007, 219.833328, 471.500007 ],
					"source" : [ "obj-28", 0 ]
				}

			}
, 			{
				"patchline" : 				{
					"destination" : [ "obj-69", 0 ],
					"midpoints" : [ 269.833344, 369.833332, 730.333313, 369.833332 ],
					"source" : [ "obj-3", 0 ]
				}

			}
, 			{
				"patchline" : 				{
					"destination" : [ "obj-183", 0 ],
					"midpoints" : [ 1284.833374, 667.166672, 1371.833374, 667.166672 ],
					"source" : [ "obj-30", 0 ]
				}

			}
, 			{
				"patchline" : 				{
					"destination" : [ "obj-15", 0 ],
					"midpoints" : [ 925.833313, 615.166672, 1015.833313, 615.166672 ],
					"source" : [ "obj-32", 0 ]
				}

			}
, 			{
				"patchline" : 				{
					"destination" : [ "obj-42", 1 ],
					"midpoints" : [ 1015.833313, 335.166672, 951.333313, 335.166672 ],
					"order" : 1,
					"source" : [ "obj-33", 0 ]
				}

			}
, 			{
				"patchline" : 				{
					"destination" : [ "obj-43", 0 ],
					"order" : 0,
					"source" : [ "obj-33", 0 ]
				}

			}
, 			{
				"patchline" : 				{
					"destination" : [ "obj-15", 0 ],
					"source" : [ "obj-35", 0 ]
				}

			}
, 			{
				"patchline" : 				{
					"destination" : [ "obj-72", 0 ],
					"source" : [ "obj-36", 0 ]
				}

			}
, 			{
				"patchline" : 				{
					"destination" : [ "obj-1", 1 ],
					"midpoints" : [ 219.833328, 649.666672, 842.833313, 649.666672 ],
					"order" : 0,
					"source" : [ "obj-37", 0 ]
				}

			}
, 			{
				"patchline" : 				{
					"destination" : [ "obj-39", 1 ],
					"order" : 1,
					"source" : [ "obj-37", 0 ]
				}

			}
, 			{
				"patchline" : 				{
					"destination" : [ "obj-21", 0 ],
					"midpoints" : [ 757.833313, 744.666672, 646.833336, 744.666672, 646.833336, 392.666672, 535.833313, 392.666672 ],
					"order" : 1,
					"source" : [ "obj-4", 0 ]
				}

			}
, 			{
				"patchline" : 				{
					"destination" : [ "obj-22", 0 ],
					"order" : 0,
					"source" : [ "obj-4", 0 ]
				}

			}
, 			{
				"patchline" : 				{
					"destination" : [ "obj-51", 0 ],
					"source" : [ "obj-43", 0 ]
				}

			}
, 			{
				"patchline" : 				{
					"destination" : [ "obj-62", 0 ],
					"source" : [ "obj-48", 0 ]
				}

			}
, 			{
				"patchline" : 				{
					"destination" : [ "obj-15", 0 ],
					"midpoints" : [ 1050.833374, 626.166672, 1015.833313, 626.166672 ],
					"source" : [ "obj-49", 0 ]
				}

			}
, 			{
				"patchline" : 				{
					"destination" : [ "obj-3", 0 ],
					"source" : [ "obj-5", 0 ]
				}

			}
, 			{
				"patchline" : 				{
					"destination" : [ "obj-189", 1 ],
					"source" : [ "obj-50", 0 ]
				}

			}
, 			{
				"patchline" : 				{
					"destination" : [ "obj-61", 0 ],
					"source" : [ "obj-51", 0 ]
				}

			}
, 			{
				"patchline" : 				{
					"destination" : [ "obj-189", 0 ],
					"source" : [ "obj-52", 0 ]
				}

			}
, 			{
				"patchline" : 				{
					"destination" : [ "obj-43", 0 ],
					"midpoints" : [ 1166.833374, 336.166672, 1015.833313, 336.166672 ],
					"source" : [ "obj-53", 0 ]
				}

			}
, 			{
				"patchline" : 				{
					"destination" : [ "obj-55", 0 ],
					"source" : [ "obj-54", 0 ]
				}

			}
, 			{
				"patchline" : 				{
					"destination" : [ "obj-64", 0 ],
					"source" : [ "obj-55", 0 ]
				}

			}
, 			{
				"patchline" : 				{
					"destination" : [ "obj-67", 0 ],
					"midpoints" : [ 777.333313, 353.499969, 753.333313, 353.499969 ],
					"source" : [ "obj-57", 1 ]
				}

			}
, 			{
				"patchline" : 				{
					"destination" : [ "obj-58", 0 ],
					"source" : [ "obj-61", 0 ]
				}

			}
, 			{
				"patchline" : 				{
					"destination" : [ "obj-36", 0 ],
					"source" : [ "obj-62", 0 ]
				}

			}
, 			{
				"patchline" : 				{
					"destination" : [ "obj-5", 0 ],
					"source" : [ "obj-62", 1 ]
				}

			}
, 			{
				"patchline" : 				{
					"destination" : [ "obj-57", 0 ],
					"source" : [ "obj-64", 0 ]
				}

			}
, 			{
				"patchline" : 				{
					"destination" : [ "obj-69", 1 ],
					"source" : [ "obj-67", 0 ]
				}

			}
, 			{
				"patchline" : 				{
					"destination" : [ "obj-31", 0 ],
					"source" : [ "obj-68", 1 ]
				}

			}
, 			{
				"patchline" : 				{
					"destination" : [ "obj-54", 0 ],
					"midpoints" : [ 709.000031, 124.166672, 709.333313, 124.166672 ],
					"source" : [ "obj-68", 2 ]
				}

			}
, 			{
				"patchline" : 				{
					"destination" : [ "obj-86", 0 ],
					"source" : [ "obj-68", 0 ]
				}

			}
, 			{
				"patchline" : 				{
					"destination" : [ "obj-18", 0 ],
					"source" : [ "obj-7", 0 ]
				}

			}
, 			{
				"patchline" : 				{
					"destination" : [ "obj-74", 0 ],
					"source" : [ "obj-71", 0 ]
				}

			}
, 			{
				"patchline" : 				{
					"destination" : [ "obj-71", 0 ],
					"source" : [ "obj-72", 0 ]
				}

			}
, 			{
				"patchline" : 				{
					"destination" : [ "obj-69", 0 ],
					"midpoints" : [ 187.5, 370.666641, 730.333313, 370.666641 ],
					"source" : [ "obj-74", 0 ]
				}

			}
, 			{
				"patchline" : 				{
					"destination" : [ "obj-7", 0 ],
					"source" : [ "obj-87", 0 ]
				}

			}
 ],
		"dependency_cache" : [ 			{
				"name" : "encoder.js",
				"bootpath" : "~/Documents/Max/Beat_Canvas",
				"patcherrelativepath" : ".",
				"type" : "TEXT",
				"implicit" : 1
			}
, 			{
				"name" : "upperCase.js",
				"bootpath" : "~/Documents/Max/Beat_Canvas",
				"patcherrelativepath" : ".",
				"type" : "TEXT",
				"implicit" : 1
			}
, 			{
				"name" : "anotherDictAttempt.js",
				"bootpath" : "~/Documents/Max/Beat_Canvas",
				"patcherrelativepath" : ".",
				"type" : "TEXT",
				"implicit" : 1
			}
, 			{
				"name" : "queryDatabase.js",
				"bootpath" : "~/Documents/Max/Beat_Canvas",
				"patcherrelativepath" : ".",
				"type" : "TEXT",
				"implicit" : 1
			}
, 			{
				"name" : "updateDatabase.js",
				"bootpath" : "~/Documents/Max/Beat_Canvas",
				"patcherrelativepath" : ".",
				"type" : "TEXT",
				"implicit" : 1
			}
, 			{
				"name" : "shell.mxo",
				"type" : "iLaX"
			}
 ],
		"autosave" : 0
	}

}
