{
	"patcher" : 	{
		"fileversion" : 1,
		"appversion" : 		{
			"major" : 7,
			"minor" : 3,
			"revision" : 4,
			"architecture" : "x86",
			"modernui" : 1
		}
,
		"rect" : [ 63.0, 101.0, 880.0, 724.0 ],
		"bglocked" : 0,
		"openinpresentation" : 0,
		"default_fontsize" : 12.0,
		"default_fontface" : 0,
		"default_fontname" : "Arial",
		"gridonopen" : 1,
		"gridsize" : [ 15.0, 15.0 ],
		"gridsnaponopen" : 1,
		"objectsnaponopen" : 1,
		"statusbarvisible" : 2,
		"toolbarvisible" : 1,
		"lefttoolbarpinned" : 0,
		"toptoolbarpinned" : 0,
		"righttoolbarpinned" : 0,
		"bottomtoolbarpinned" : 0,
		"toolbars_unpinned_last_save" : 0,
		"tallnewobj" : 0,
		"boxanimatetime" : 200,
		"enablehscroll" : 1,
		"enablevscroll" : 1,
		"devicewidth" : 0.0,
		"description" : "",
		"digest" : "",
		"tags" : "",
		"style" : "",
		"subpatcher_template" : "",
		"boxes" : [ 			{
				"box" : 				{
					"autofit" : 1,
					"data" : [ 3492, "png", "IBkSG0fBZn....PCIgDQRA..A3E....tHX....vpAQXL....DLmPIQEBHf.B7g.YHB..MrURDEDU3wY6c+GaTVe.GG+CyVRA4pzNKtAr05nFqY6PsanstUVA1O5xlv4ThSolz5z5HaiBYJj0MXYkIIUmZKYKn0LKAJte.BEHQbp.WfLKSJ0YOM1AVoMfciVonbJbiV81ezhPgVn2wyy2m64t2uRLobWumueo3227vy877biJb3vgE..LlOiSOA..RzP3E.vvH7B.XXDdA.LLBu..FFgW..CivK.fgQ3E.vvH7B.XXDdA.LLBu..FFgW..CivK.fgQ3E.vvH7B.XXDdA.LLBu..FFgW..CivK.fgQ3E.vvH7B.XXDdA.LLBu..FFgW..CivK.fgQ3E.vvRxom..Qh9BETAOYeRRZLdRSov+GLbgXOdgKPHE3EVsdfYLUk7XRUomd5J8zSWiI4QoaaQqTM2YHmdBBDQFU3vgC6zSBfgUn1zibWYqkzvE9aqlc8tZAELQyLm.tDwd7hXW80gV9MclnquhKVdGlu0xm97zN5rOiM0.tTP3EwnBoM7P2pVV.IeUtY00ICqMs10pVB2i1VU9Fhue+Z4anEiOKAhFDdQLoPAVsla0AjuZZTaZoyVYjxoelzTQKdMpthO+WyQO3gE6yKbCH7hXRo389z61d65Ouf7Fhm0ixaVme4MvINEgW3JvIiChQkjlXlYNrO6620gOuGy2MdsJkg36EHVCmUCv84X6VyH8oK+myCutCbRc2YS5Ew93PM.2k9ZSK+Gd9Q2hW09H5BWCNTCv0HXa6POX1yR0dNO9BqqQ8nkjqiLm.hFrGuH1Vnfp08rEs7GXFJ0yN550mpnl0q2pqd0STRdrGDvUgiwKh8zWGZCO9ZzKEnYUa8C8krl2J2ld0kVDuYZvUhvKh8DbO5dRMeU+E66qvpT6uzhUlr6tvkwRCu268duZG6XGV0lCwAtxq7JUSM0TT8ZCcrNzd29l0iO2x0vdqZnhsode3hhnC0PIkTh762eTMmPrmst0sJudGtKl7XSV59JzUWcoN5nC4wiGcEWwUXkaZ3R8IexmD0u1TRKSUvcr.UPu2gdxRmjl+PsKvqnJsqEVjlYFQ1b5i+3ONpmWH1vgOb+mK2m5TmxgmIQNa4ej1gNzgH7BqSRST+j5dK8Z0ecm2Yzfje0TaGSyLizFwat0rl0XkyN3PV3BWnpolZb5oQTgypA3NjTN52s8JGxmpwW8fFdx.bogvKbMx3V7og3diCfqCgW3djRVZVCwcDxwkZxlet.bIfvKb8l1TyxomB.QDBuvkqX8MtFON8j.HhP3EtH8nC01feDuUVpxktKbY3Z9AwD5n4cn89N8nzm7WQSKubzP0RC17l0xBb1ORYZcOzLMzLDv5P3ENt11vhT1ys5y5QJVqukGW2g2y9phnaU2un7A85pqkeu7xMqA3BwgZ.NrfZ2qq5y4wpWycpSP21uZ0p0NCpPA6Pq9AlkJ2+oeduptF6Rk3kiw.bmrzv6TlxTTt4lqtrK6xrxMKhqkrF2DF5mogUTpttIkpFSpYoRqs+iwf2xpQszSypj7hfqQXDWZxSdxJ2byUicri0omJQLt6jAGWecta8SKZ5p1.C+2iuxpR+7EUplYNDbg6GgWDinO0YqMoldi2QenFsF8ojz3Fml7UeM5ZyJSklGd6HP7CBu..FFu4Z..FFgW..CivK.fgQ3E.vvH7B.XXDdA.LLBu..FFgW..CivK.fgQ3E.tKgZSO4uZQZkuPqN8LIp4pCum3DmPqbkqTO+y+7N8TA.lRuef96qnZUdUunNlSOWhRt5v6wO9wU4kWtdlm4Yb5oB.LkjkFmjz3Gsq8SxAWc3E.IlNpjTC+Msu8uemdpDUH7B.WmtjjzN0Vdw+kCOShNDdAfq0q7Fc5zSgnBgW.3Z8OeglkaL8R3E.tWcrVsklC5zyhHFgW.3pM+k+bxskdI7B.2sFJUOW.2U5kvK.b8JcYtq85kvK.b+ZnTsp83dtN1H7Bf3BKI+eu5vomDiPDdAPbhUnEtx83zShQDBu.HtQCkmuVsK3MZivK.hqT5TeP0ZHmdVbgQ3E.wYpUW2ubCJVt8R3E.wepdt5WtkX22pMBu.HtT0yoD8Bc1mSOMFRDdAPbJ+56UziGSdSzgvK.heEXIZdKe2N8r37P3E.w07uroqGY2c6zSiAgvK.h6sjoWlhkthhI7BfD.Mn7WvyFybizgvK.bW58T58ilWW8ySKaKsY0ylnBgW.3t34KqhlmOII8C9l2r7FAuzpmy8ocGCbHGH7B.WFO5KkaARR5dKeIpkv8pdd22Vae8qRkU3E605WSeAOqieUsQ3E.tbIozl3TzLuiehdpcFVc8V6RUV7EX+fqed5Q2gyd18R3E.wUxHmBzRWaKp8FWmJbX9dV1r9sN5MRGBu.HtTl4c2ZmG+sTkENTOasZ9N38tWBu.H9kmbzR2YWpthO+mx+RJywtWNP3E.w4xPkr1dFh3a.s3G8kkSjdI7BfD.ooRVa6ppBG7iFn5EqW1A1qWBu.HAQlZwaYeZv63a.U0epQiOSH7BfDGdxUO8AV2fdH+KqV0rgOCGH7BfDJoj8cqVFzA7sds1WzreZUP3E.Ib7VRUpxy5Zrn5mXaxjWIwDdAPBnIpeVsUcleo+4qs2l4NdCDdAPBozx69UMEdle8e741qwFaBu.HAUZ5tp7L60q+krQ0pgNyxH7BfDVYTvcpJ9zeU0xeKl4VkNgW.j.KScOm0Y3ve8keSiLpDdAPBsblSoe5cwL+0uKYhOVLI7BfDaocK59O8N8FXaJfAJuDdAPBtTz2trS+lr4WM0p8WdI7BfDdYbCeK4afutwW6P193Q3E.vy0nu6.k2F1aK19GC7DdA.jGcSyXfx6qeHBu..lvUeS42+WDnY8es4xKgW..I44KNU0+8Mm1z6zi8deafvK.fjRJ8IoqWRRATmG8j15XQ3E.PRJkrzWefCyanOxduoMP3E.PRRdzMLvav11r4SoLBu..C3xG83jjz3s4wgvK.fgQ3E.X.Im5X6+KFcx153P3E.X.Y4s+yk2Fds+srySnLBu..Cn2Sma2+6I67DJivK.v4ZxonjrwMOgW.fyguu9TkGab6S3E.X.IqT5+KNk8NNDdA.FvQN3qajwgvK.v.NZms2+WLZ6cbH7B.LfjU+W4Zy3ltZacbH7B.bZoXlggvK.fjjBo+ci0KIoqbriwVGIBu..RRJndm8KI4S4LI6cWeI7B.HIE5PpQ+Rxa95KXmmDuhvK.fjjB0dqpAIU3byWYXyiEgW..Icj8+lRR5Vl1Tr8whvK.fjZ60eEI4U27TmfsOVDdA.Tmpo06WR2pt9IZm2db5GgW.ftaQ0GPxaEyRYZfgivK.R305KsIEPREeq2nQFO6eepi.gBdLcjibDcz2qa89m3izoF3NDzkO9InL97eAk0jxPoDSMiAvkJmecePsm0WqjJSy9qklcNPeJGNi0m5r0lj+WbqZ8aZqpA+AtnuhhqnFU18bWpfbr6S3C.XOh0V26Qkrod0OJjL2N1E1Qb7v6ayqJrOuJrTz8edKaUg26A6LrjBe629s6L+1..Q.qYce6mLb3G6wdrvRJ7F23Fc5eSEUL9w3sscuZcaiJU8Umy7UCW7+htgUfZmul1U+artIF.rMV459rFyhzg+eV2byIXtvavV0JumoprmdopAKai9z8uo+XKaCB.qjsrtuZ8DUrYKaq4DLxQzHXqaQy95li7aSa+2niOvl1x.HZYuq62ksrUMEaO718ddRMg7musNFcdfintkr8quZ.LxXh08RRt0c4xVOTCl5G95COnZri9r+wA.WTFacuj1e2tyiynsEdC01FL1O7k9P09QCZnwB.CGyttW5JxYZFarrR1T3sCs7rmq8roAPLJyuteLiKUiNdVEaI715p+0ZE1wFF.wrXc+Hm0GdCEPObo0a4a1KLuJqOqMeKiG.COV2GQr7vaqa7OHS+ieoqWS9p3l3.fSg08QFKN7dL4+oq0Z2ji.dqrTkqg9XYF.mKV2Gor1vanCp+geKcKNB3U+te7zM8fBfSi08QLW+8iWuU7HZ1F3NFO.hc31W2aog2fG3UM7w4wmp8AKxniH.FLV2G4rzvqmIeCxmUtAuHpZW0p7Ly8sX.LLXcejyZOTCdFur+OeN6WEa9.ZwEvcmA.GGq6iXVa3Mor02egdszM4Poxs815gmc1193.fQ.V2Gwr32bsjTA2YwV6lbP7p5ZrKszhlhMNF.Hxv59HkkeVMjVdyWqqLqdqJoBqT6qqlUI449+mY.Dug08QFa3zIyit6mpGUmk8GBEpZ1bKp2ctTkaFt2SeDf3artORXSmGuooRdpSpsWykxeJ3SUstcod5cmZAy1qS+wgL.tnXc+H0nBGNbX6b.B0Y.swM7WzSW9Jt3eDfTnOUwsMGUz246n7yYhws+PGHdGq6uvr8v6YzmNV2uqN7g9Op62+DC7XIqwN9KWiO0OmtpqJcklGW5EdM.FFrtenXvvK..jhCtWM..31P3E.vvH7B.XXDdA.LLBu..FFgW..CivK.fgQ3E.vvH7B.XXDdA.LLBu..FFgW..CivK.fgQ3E.vvH7B.XXDdA.LLBu..F1+GbpqelGgPD8B.....jTQNQjqBAlf" ],
					"embed" : 1,
					"id" : "obj-9",
					"maxclass" : "fpic",
					"numinlets" : 1,
					"numoutlets" : 1,
					"outlettype" : [ "jit_matrix" ],
					"patching_rect" : [ 985.18634, 618.881531, 122.000008, 62.450001 ],
					"pic" : "TripletQuarterEighth.png"
				}

			}
, 			{
				"box" : 				{
					"fontname" : "Arial",
					"fontsize" : 12.0,
					"id" : "obj-4",
					"maxclass" : "message",
					"numinlets" : 2,
					"numoutlets" : 1,
					"outlettype" : [ "" ],
					"patching_rect" : [ 985.186279, 436.0, 32.5, 22.0 ],
					"presentation_rect" : [ 982.5, 436.0, 0.0, 0.0 ],
					"style" : "",
					"text" : "0"
				}

			}
, 			{
				"box" : 				{
					"fontname" : "Arial",
					"fontsize" : 12.0,
					"id" : "obj-5",
					"maxclass" : "message",
					"numinlets" : 2,
					"numoutlets" : 1,
					"outlettype" : [ "" ],
					"patching_rect" : [ 1031.186279, 436.0, 32.5, 22.0 ],
					"presentation_rect" : [ 1035.5, 436.0, 0.0, 0.0 ],
					"style" : "",
					"text" : "1"
				}

			}
, 			{
				"box" : 				{
					"fontname" : "Arial",
					"fontsize" : 12.0,
					"id" : "obj-6",
					"maxclass" : "message",
					"numinlets" : 2,
					"numoutlets" : 1,
					"outlettype" : [ "" ],
					"patching_rect" : [ 985.186279, 466.0, 63.0, 22.0 ],
					"presentation_rect" : [ 982.5, 466.0, 0.0, 0.0 ],
					"style" : "",
					"text" : "hidden $1"
				}

			}
, 			{
				"box" : 				{
					"fontname" : "Arial",
					"fontsize" : 12.0,
					"id" : "obj-7",
					"maxclass" : "newobj",
					"numinlets" : 2,
					"numoutlets" : 2,
					"outlettype" : [ "bang", "" ],
					"patching_rect" : [ 985.186279, 401.0, 65.0, 22.0 ],
					"style" : "",
					"text" : "select 101"
				}

			}
, 			{
				"box" : 				{
					"comment" : "",
					"id" : "obj-8",
					"index" : 0,
					"maxclass" : "outlet",
					"numinlets" : 1,
					"numoutlets" : 0,
					"patching_rect" : [ 985.186279, 563.172241, 25.0, 25.0 ],
					"presentation_rect" : [ 982.500061, 570.172241, 0.0, 0.0 ],
					"style" : ""
				}

			}
, 			{
				"box" : 				{
					"autofit" : 1,
					"id" : "obj-3",
					"maxclass" : "fpic",
					"numinlets" : 1,
					"numoutlets" : 1,
					"outlettype" : [ "jit_matrix" ],
					"patching_rect" : [ 818.500061, 618.881531, 128.399994, 62.450001 ],
					"pic" : "TripletQuarterRestEighth.png"
				}

			}
, 			{
				"box" : 				{
					"autofit" : 1,
					"id" : "obj-1",
					"maxclass" : "fpic",
					"numinlets" : 1,
					"numoutlets" : 1,
					"outlettype" : [ "jit_matrix" ],
					"patching_rect" : [ 289.750031, 617.756531, 128.399994, 62.450001 ],
					"pic" : "Triplets.png"
				}

			}
, 			{
				"box" : 				{
					"fontname" : "Lucida Grande",
					"fontsize" : 48.0,
					"id" : "obj-2",
					"linecount" : 2,
					"maxclass" : "comment",
					"numinlets" : 1,
					"numoutlets" : 0,
					"patching_rect" : [ 517.186279, 75.028091, 1008.0, 120.0 ],
					"style" : "",
					"text" : "The beat is converted into a rhythm in standard notation."
				}

			}
, 			{
				"box" : 				{
					"fontname" : "Arial",
					"fontsize" : 12.0,
					"id" : "obj-114",
					"maxclass" : "message",
					"numinlets" : 2,
					"numoutlets" : 1,
					"outlettype" : [ "" ],
					"patching_rect" : [ 818.5, 429.0, 32.5, 22.0 ],
					"style" : "",
					"text" : "0"
				}

			}
, 			{
				"box" : 				{
					"fontname" : "Arial",
					"fontsize" : 12.0,
					"id" : "obj-115",
					"maxclass" : "message",
					"numinlets" : 2,
					"numoutlets" : 1,
					"outlettype" : [ "" ],
					"patching_rect" : [ 871.5, 429.0, 32.5, 22.0 ],
					"style" : "",
					"text" : "1"
				}

			}
, 			{
				"box" : 				{
					"fontname" : "Arial",
					"fontsize" : 12.0,
					"id" : "obj-116",
					"maxclass" : "message",
					"numinlets" : 2,
					"numoutlets" : 1,
					"outlettype" : [ "" ],
					"patching_rect" : [ 818.5, 459.0, 63.0, 22.0 ],
					"style" : "",
					"text" : "hidden $1"
				}

			}
, 			{
				"box" : 				{
					"fontname" : "Arial",
					"fontsize" : 12.0,
					"id" : "obj-111",
					"maxclass" : "message",
					"numinlets" : 2,
					"numoutlets" : 1,
					"outlettype" : [ "" ],
					"patching_rect" : [ 645.5, 429.0, 32.5, 22.0 ],
					"style" : "",
					"text" : "0"
				}

			}
, 			{
				"box" : 				{
					"fontname" : "Arial",
					"fontsize" : 12.0,
					"id" : "obj-112",
					"maxclass" : "message",
					"numinlets" : 2,
					"numoutlets" : 1,
					"outlettype" : [ "" ],
					"patching_rect" : [ 698.5, 429.0, 32.5, 22.0 ],
					"style" : "",
					"text" : "1"
				}

			}
, 			{
				"box" : 				{
					"fontname" : "Arial",
					"fontsize" : 12.0,
					"id" : "obj-113",
					"maxclass" : "message",
					"numinlets" : 2,
					"numoutlets" : 1,
					"outlettype" : [ "" ],
					"patching_rect" : [ 645.5, 459.0, 63.0, 22.0 ],
					"style" : "",
					"text" : "hidden $1"
				}

			}
, 			{
				"box" : 				{
					"fontname" : "Arial",
					"fontsize" : 12.0,
					"id" : "obj-108",
					"maxclass" : "message",
					"numinlets" : 2,
					"numoutlets" : 1,
					"outlettype" : [ "" ],
					"patching_rect" : [ 482.5, 429.0, 32.5, 22.0 ],
					"style" : "",
					"text" : "0"
				}

			}
, 			{
				"box" : 				{
					"fontname" : "Arial",
					"fontsize" : 12.0,
					"id" : "obj-109",
					"maxclass" : "message",
					"numinlets" : 2,
					"numoutlets" : 1,
					"outlettype" : [ "" ],
					"patching_rect" : [ 535.5, 429.0, 32.5, 22.0 ],
					"style" : "",
					"text" : "1"
				}

			}
, 			{
				"box" : 				{
					"fontname" : "Arial",
					"fontsize" : 12.0,
					"id" : "obj-110",
					"maxclass" : "message",
					"numinlets" : 2,
					"numoutlets" : 1,
					"outlettype" : [ "" ],
					"patching_rect" : [ 482.5, 459.0, 63.0, 22.0 ],
					"style" : "",
					"text" : "hidden $1"
				}

			}
, 			{
				"box" : 				{
					"fontname" : "Arial",
					"fontsize" : 12.0,
					"id" : "obj-105",
					"maxclass" : "message",
					"numinlets" : 2,
					"numoutlets" : 1,
					"outlettype" : [ "" ],
					"patching_rect" : [ 289.75, 429.0, 32.5, 22.0 ],
					"style" : "",
					"text" : "0"
				}

			}
, 			{
				"box" : 				{
					"fontname" : "Arial",
					"fontsize" : 12.0,
					"id" : "obj-106",
					"maxclass" : "message",
					"numinlets" : 2,
					"numoutlets" : 1,
					"outlettype" : [ "" ],
					"patching_rect" : [ 342.75, 429.0, 32.5, 22.0 ],
					"style" : "",
					"text" : "1"
				}

			}
, 			{
				"box" : 				{
					"fontname" : "Arial",
					"fontsize" : 12.0,
					"id" : "obj-107",
					"maxclass" : "message",
					"numinlets" : 2,
					"numoutlets" : 1,
					"outlettype" : [ "" ],
					"patching_rect" : [ 289.75, 459.0, 63.0, 22.0 ],
					"style" : "",
					"text" : "hidden $1"
				}

			}
, 			{
				"box" : 				{
					"fontname" : "Arial",
					"fontsize" : 12.0,
					"id" : "obj-101",
					"maxclass" : "message",
					"numinlets" : 2,
					"numoutlets" : 1,
					"outlettype" : [ "" ],
					"patching_rect" : [ 155.0, 429.0, 32.5, 22.0 ],
					"style" : "",
					"text" : "0"
				}

			}
, 			{
				"box" : 				{
					"fontname" : "Arial",
					"fontsize" : 12.0,
					"id" : "obj-102",
					"maxclass" : "message",
					"numinlets" : 2,
					"numoutlets" : 1,
					"outlettype" : [ "" ],
					"patching_rect" : [ 208.0, 429.0, 32.5, 22.0 ],
					"style" : "",
					"text" : "1"
				}

			}
, 			{
				"box" : 				{
					"fontname" : "Arial",
					"fontsize" : 12.0,
					"id" : "obj-103",
					"maxclass" : "message",
					"numinlets" : 2,
					"numoutlets" : 1,
					"outlettype" : [ "" ],
					"patching_rect" : [ 155.0, 459.0, 63.0, 22.0 ],
					"style" : "",
					"text" : "hidden $1"
				}

			}
, 			{
				"box" : 				{
					"autofit" : 1,
					"id" : "obj-96",
					"maxclass" : "fpic",
					"numinlets" : 1,
					"numoutlets" : 1,
					"outlettype" : [ "jit_matrix" ],
					"patching_rect" : [ 630.0, 616.856506, 155.0, 62.0 ],
					"pic" : "TripletEighthRestTwoEighths.png"
				}

			}
, 			{
				"box" : 				{
					"autofit" : 1,
					"id" : "obj-97",
					"maxclass" : "fpic",
					"numinlets" : 1,
					"numoutlets" : 1,
					"outlettype" : [ "jit_matrix" ],
					"patching_rect" : [ 469.0, 618.881531, 143.0, 57.200001 ],
					"pic" : "TripletEighthRestQuarter.png"
				}

			}
, 			{
				"box" : 				{
					"autofit" : 1,
					"id" : "obj-99",
					"maxclass" : "fpic",
					"numinlets" : 1,
					"numoutlets" : 1,
					"outlettype" : [ "jit_matrix" ],
					"patching_rect" : [ 139.0, 617.756531, 128.399994, 62.450001 ],
					"pic" : "TripletEighthQuarter.png"
				}

			}
, 			{
				"box" : 				{
					"autofit" : 1,
					"data" : [ 1437, "png", "IBkSG0fBZn....PCIgDQRA...vH....oHX....PQ+XbY....DLmPIQEBHf.B7g.YHB..EPURDEDU3wY6a+DhL+GGGG+07alxgsnHzr9yNXNnPNobvg8HRImTVIIYkxAWbYWmzPN4j1kS3lHGTRtvljCqrhKRYx9GIBs6xpbv36uC9QzJ7pe6Nu+7c2mOpos11c99Zpm62Y91LagrrrLA7W5ehd.HegfAVHXfEBFXgfAVHXfEBFXgfAVHXfEBFXgfAVHXfEBFXgfAVHXfEBFXgfAVHXfEBFXgfAVHXfEBFXgfAVHXfEBFXgfAVHXfEBFXgfAVHXfEBFXgfAVHXfEBFXgfAVHXfEBFXoTzCHu3oO8o5Ce3CZgKbgps1ZK54DFNCyeoN6rSsgMrAUqVsnmRnHXfEBFXgfAVHXfEBFXgfAVHXfEBFXgfAVHXfEBFXgfAVHXfEBFXgfAVHXfEBFXgfAVHXfEBFXgfAVHXfEBFXgfAVHXfEBFXgfAVHXfEBFXgfAVHXfEBFXgfAVHXfEBFXgfAVHXfEBFXgfAVHXfEBFXgfAVHXfEBFXgfAVHXfEBFXgfAVHXfEBFXgfAVHXfEBFXgfAVHXfEBFXgfAVHXfEBFXgfAVHXfEBFXgfAVHXfEBFXgfAVHXfEBFXgfAVHXfEBFXgfAVJE8.lt8l27FMzPCoAGbPMzPC88aCN3fZrwFSUpTQUqVUUqVUqZUq56ecdyadQO8jzLxfYrwFSW9xWV81auZfAF329yN7vCq6bm6Lou+QNxQT2c2sl+7m+z0LyklQ8TRCLv.Ze6aepb4x5.G3.+wX424zm9zpZ0p5bm6bJKKaJbk4ayHNCyCdvCTWc0kt4Mu4T586niNp5ryN00t10TiFMlRuuyqx0AyDSLgN5QOp5s2dmVOKv0u9040z7exsAS+82u10t1kpWudS43M93i2TNNotb4qg4Lm4LZSaZSMsX4GM5ni1zOlojb0YXZzngN7gOr5omdBaCO7gOLricJnPVN4R.97m+r18t2stzktTn6nXwhZ7wGWszRKgtinjadJo8u+8GdrH80yx0e+8G8LBStHXNwINgtvEtPzy36d1ydVzSHLIevb6aeacricrnmwO48u+8QOgvjzAyDSLg16d2q9xW9RzS4mLm4LmnmPXR5f43G+3Z3gGN5YLIKYIKI5IDlj8pjd8qespToh9zm9TzSYRd9yetpToRzyHDI6YXN6YOaRFKUqVcVarHkvASJcUQ+nctycF8DBUR9TRO9wOVqe8qO5YLIEKVT0qWWs0VaQOkvjjmg4t28tQOgeoN5niY0whThFLO4IOI5ILIszRKpVsZQOivkjAyae6aidBSxoN0ozRW5RidFgKIClTy12910gNzghdFIgjLXRoO30qYMqQW7hWTEJTH5ojDRxfYsqcsQOAIIs7kubciabCM24N2nmRxHIClsrksD9eQuxUtR0We8oksrkE5NRMIYvToREs0st0vN9abiaT26d2SqXEqHrMjpRxfQR5jm7jpTol+mfzCdvCp95qOs3Eu3l9wNOHYCl0st0ot6t6l1waAKXA5JW4Jpmd5YV8Geg+nrDViFMx1yd1SljlVu0QGcj8pW8pne3lKjzASV1WilZ0pkUpToozHoPgBY6XG6H692+9Q+PLWI4Clu4QO5QYs2d6+uCkVas0rt5pqr50qG8Coboj7cq924V25V57m+75pW8p5ie7i+U+Nqd0qVadyaVaaaaSs2d6pXwhSyqblqbWv7MMZzPu7kuTu3EuPiLxHZjQFQu6cuSKZQKRkKWVs1Zqpb4xpb4xyZ+eHZ5PtMXPLR1KqFoIBFXgfAVHXfEBFXgfAVHXfEBFXgfAVHXfEBFXgfAVHXfEBFXgfAVHXfEBFXgfAV9WD7Ibu7fEFvx.....jTQNQjqBAlf" ],
					"embed" : 1,
					"id" : "obj-100",
					"maxclass" : "fpic",
					"numinlets" : 1,
					"numoutlets" : 1,
					"outlettype" : [ "jit_matrix" ],
					"patching_rect" : [ 65.000031, 617.756531, 48.75, 65.5 ],
					"pic" : "Quarter.png"
				}

			}
, 			{
				"box" : 				{
					"fontname" : "Arial",
					"fontsize" : 12.0,
					"id" : "obj-84",
					"maxclass" : "message",
					"numinlets" : 2,
					"numoutlets" : 1,
					"outlettype" : [ "" ],
					"patching_rect" : [ 65.0, 429.0, 32.5, 22.0 ],
					"style" : "",
					"text" : "0"
				}

			}
, 			{
				"box" : 				{
					"fontname" : "Arial",
					"fontsize" : 12.0,
					"id" : "obj-79",
					"maxclass" : "message",
					"numinlets" : 2,
					"numoutlets" : 1,
					"outlettype" : [ "" ],
					"patching_rect" : [ 111.0, 429.0, 32.5, 22.0 ],
					"style" : "",
					"text" : "1"
				}

			}
, 			{
				"box" : 				{
					"fontname" : "Arial",
					"fontsize" : 12.0,
					"id" : "obj-73",
					"maxclass" : "message",
					"numinlets" : 2,
					"numoutlets" : 1,
					"outlettype" : [ "" ],
					"patching_rect" : [ 65.0, 459.0, 63.0, 22.0 ],
					"style" : "",
					"text" : "hidden $1"
				}

			}
, 			{
				"box" : 				{
					"fontname" : "Arial",
					"fontsize" : 12.0,
					"id" : "obj-59",
					"maxclass" : "newobj",
					"numinlets" : 2,
					"numoutlets" : 2,
					"outlettype" : [ "bang", "" ],
					"patching_rect" : [ 645.5, 401.0, 72.0, 22.0 ],
					"style" : "",
					"text" : "select 11"
				}

			}
, 			{
				"box" : 				{
					"fontname" : "Arial",
					"fontsize" : 12.0,
					"id" : "obj-57",
					"maxclass" : "newobj",
					"numinlets" : 2,
					"numoutlets" : 2,
					"outlettype" : [ "bang", "" ],
					"patching_rect" : [ 482.5, 401.0, 72.0, 22.0 ],
					"style" : "",
					"text" : "select 10"
				}

			}
, 			{
				"box" : 				{
					"fontname" : "Arial",
					"fontsize" : 12.0,
					"id" : "obj-56",
					"maxclass" : "newobj",
					"numinlets" : 2,
					"numoutlets" : 2,
					"outlettype" : [ "bang", "" ],
					"patching_rect" : [ 289.75, 401.0, 72.0, 22.0 ],
					"style" : "",
					"text" : "select 111"
				}

			}
, 			{
				"box" : 				{
					"fontname" : "Arial",
					"fontsize" : 12.0,
					"id" : "obj-55",
					"maxclass" : "newobj",
					"numinlets" : 2,
					"numoutlets" : 2,
					"outlettype" : [ "bang", "" ],
					"patching_rect" : [ 65.0, 401.0, 65.0, 22.0 ],
					"style" : "",
					"text" : "select 100"
				}

			}
, 			{
				"box" : 				{
					"fontname" : "Arial",
					"fontsize" : 12.0,
					"id" : "obj-54",
					"maxclass" : "newobj",
					"numinlets" : 2,
					"numoutlets" : 2,
					"outlettype" : [ "bang", "" ],
					"patching_rect" : [ 155.0, 401.0, 72.0, 22.0 ],
					"style" : "",
					"text" : "select 110"
				}

			}
, 			{
				"box" : 				{
					"fontname" : "Arial",
					"fontsize" : 12.0,
					"id" : "obj-53",
					"maxclass" : "newobj",
					"numinlets" : 2,
					"numoutlets" : 2,
					"outlettype" : [ "bang", "" ],
					"patching_rect" : [ 818.5, 401.0, 72.0, 22.0 ],
					"style" : "",
					"text" : "select 1"
				}

			}
, 			{
				"box" : 				{
					"fontname" : "Arial",
					"fontsize" : 12.0,
					"id" : "obj-42",
					"maxclass" : "message",
					"numinlets" : 2,
					"numoutlets" : 1,
					"outlettype" : [ "" ],
					"patching_rect" : [ 65.0, 241.0, 32.5, 22.0 ],
					"style" : "",
					"text" : "$1"
				}

			}
, 			{
				"box" : 				{
					"fontname" : "Arial",
					"fontsize" : 12.0,
					"id" : "obj-40",
					"maxclass" : "message",
					"numinlets" : 2,
					"numoutlets" : 1,
					"outlettype" : [ "" ],
					"patching_rect" : [ 108.75, 241.0, 32.5, 22.0 ],
					"style" : "",
					"text" : "$2"
				}

			}
, 			{
				"box" : 				{
					"fontname" : "Arial",
					"fontsize" : 12.0,
					"id" : "obj-30",
					"maxclass" : "message",
					"numinlets" : 2,
					"numoutlets" : 1,
					"outlettype" : [ "" ],
					"patching_rect" : [ 152.5, 241.0, 32.5, 22.0 ],
					"style" : "",
					"text" : "$3"
				}

			}
, 			{
				"box" : 				{
					"fontname" : "Arial",
					"fontsize" : 12.0,
					"id" : "obj-16",
					"maxclass" : "newobj",
					"numinlets" : 1,
					"numoutlets" : 1,
					"outlettype" : [ "" ],
					"patching_rect" : [ 65.0, 325.5, 73.0, 22.0 ],
					"style" : "",
					"text" : "fromsymbol"
				}

			}
, 			{
				"box" : 				{
					"fontname" : "Arial",
					"fontsize" : 12.0,
					"id" : "obj-24",
					"maxclass" : "newobj",
					"numinlets" : 3,
					"numoutlets" : 2,
					"outlettype" : [ "", "" ],
					"patching_rect" : [ 65.0, 282.5, 106.5, 22.0 ],
					"style" : "",
					"text" : "combine 1 2 3"
				}

			}
, 			{
				"box" : 				{
					"fontname" : "Arial",
					"fontsize" : 12.0,
					"id" : "obj-153",
					"maxclass" : "newobj",
					"numinlets" : 1,
					"numoutlets" : 2,
					"outlettype" : [ "bang", "int" ],
					"patching_rect" : [ 95.25, 115.0, 32.5, 22.0 ],
					"style" : "",
					"text" : "t b i"
				}

			}
, 			{
				"box" : 				{
					"fontname" : "Arial",
					"fontsize" : 12.0,
					"id" : "obj-152",
					"maxclass" : "newobj",
					"numinlets" : 1,
					"numoutlets" : 2,
					"outlettype" : [ "bang", "int" ],
					"patching_rect" : [ 139.0, 115.0, 32.5, 22.0 ],
					"style" : "",
					"text" : "t b i"
				}

			}
, 			{
				"box" : 				{
					"fontname" : "Arial",
					"fontsize" : 12.0,
					"id" : "obj-149",
					"maxclass" : "message",
					"numinlets" : 2,
					"numoutlets" : 1,
					"outlettype" : [ "" ],
					"patching_rect" : [ 65.0, 204.0, 37.0, 22.0 ],
					"style" : "",
					"text" : "0 0 0"
				}

			}
, 			{
				"box" : 				{
					"fontname" : "Arial",
					"fontsize" : 12.0,
					"id" : "obj-147",
					"maxclass" : "newobj",
					"numinlets" : 3,
					"numoutlets" : 1,
					"outlettype" : [ "" ],
					"patching_rect" : [ 65.0, 159.0, 106.5, 22.0 ],
					"style" : "",
					"text" : "pack i i i"
				}

			}
, 			{
				"box" : 				{
					"comment" : "",
					"id" : "obj-150",
					"index" : 0,
					"maxclass" : "inlet",
					"numinlets" : 0,
					"numoutlets" : 1,
					"outlettype" : [ "" ],
					"patching_rect" : [ 65.0, 55.0, 25.0, 25.0 ],
					"style" : ""
				}

			}
, 			{
				"box" : 				{
					"comment" : "",
					"id" : "obj-151",
					"index" : 0,
					"maxclass" : "inlet",
					"numinlets" : 0,
					"numoutlets" : 1,
					"outlettype" : [ "" ],
					"patching_rect" : [ 95.25, 55.0, 25.0, 25.0 ],
					"style" : ""
				}

			}
, 			{
				"box" : 				{
					"comment" : "",
					"id" : "obj-154",
					"index" : 0,
					"maxclass" : "inlet",
					"numinlets" : 0,
					"numoutlets" : 1,
					"outlettype" : [ "" ],
					"patching_rect" : [ 139.0, 55.0, 25.0, 25.0 ],
					"style" : ""
				}

			}
, 			{
				"box" : 				{
					"comment" : "",
					"id" : "obj-156",
					"index" : 0,
					"maxclass" : "outlet",
					"numinlets" : 1,
					"numoutlets" : 0,
					"patching_rect" : [ 65.000031, 563.172241, 25.0, 25.0 ],
					"style" : ""
				}

			}
, 			{
				"box" : 				{
					"comment" : "",
					"id" : "obj-157",
					"index" : 0,
					"maxclass" : "outlet",
					"numinlets" : 1,
					"numoutlets" : 0,
					"patching_rect" : [ 155.000031, 563.172241, 25.0, 25.0 ],
					"style" : ""
				}

			}
, 			{
				"box" : 				{
					"comment" : "",
					"id" : "obj-158",
					"index" : 0,
					"maxclass" : "outlet",
					"numinlets" : 1,
					"numoutlets" : 0,
					"patching_rect" : [ 289.750031, 563.172241, 25.0, 25.0 ],
					"style" : ""
				}

			}
, 			{
				"box" : 				{
					"comment" : "",
					"id" : "obj-159",
					"index" : 0,
					"maxclass" : "outlet",
					"numinlets" : 1,
					"numoutlets" : 0,
					"patching_rect" : [ 482.500031, 563.172241, 25.0, 25.0 ],
					"style" : ""
				}

			}
, 			{
				"box" : 				{
					"comment" : "",
					"id" : "obj-160",
					"index" : 0,
					"maxclass" : "outlet",
					"numinlets" : 1,
					"numoutlets" : 0,
					"patching_rect" : [ 645.500061, 563.172241, 25.0, 25.0 ],
					"style" : ""
				}

			}
, 			{
				"box" : 				{
					"comment" : "",
					"id" : "obj-161",
					"index" : 0,
					"maxclass" : "outlet",
					"numinlets" : 1,
					"numoutlets" : 0,
					"patching_rect" : [ 818.500061, 563.172241, 25.0, 25.0 ],
					"style" : ""
				}

			}
 ],
		"lines" : [ 			{
				"patchline" : 				{
					"destination" : [ "obj-103", 0 ],
					"source" : [ "obj-101", 0 ]
				}

			}
, 			{
				"patchline" : 				{
					"destination" : [ "obj-103", 0 ],
					"midpoints" : [ 217.5, 452.5, 164.5, 452.5 ],
					"source" : [ "obj-102", 0 ]
				}

			}
, 			{
				"patchline" : 				{
					"destination" : [ "obj-157", 0 ],
					"source" : [ "obj-103", 0 ]
				}

			}
, 			{
				"patchline" : 				{
					"destination" : [ "obj-107", 0 ],
					"source" : [ "obj-105", 0 ]
				}

			}
, 			{
				"patchline" : 				{
					"destination" : [ "obj-107", 0 ],
					"midpoints" : [ 352.25, 452.5, 299.25, 452.5 ],
					"source" : [ "obj-106", 0 ]
				}

			}
, 			{
				"patchline" : 				{
					"destination" : [ "obj-158", 0 ],
					"source" : [ "obj-107", 0 ]
				}

			}
, 			{
				"patchline" : 				{
					"destination" : [ "obj-110", 0 ],
					"source" : [ "obj-108", 0 ]
				}

			}
, 			{
				"patchline" : 				{
					"destination" : [ "obj-110", 0 ],
					"midpoints" : [ 545.0, 452.5, 492.0, 452.5 ],
					"source" : [ "obj-109", 0 ]
				}

			}
, 			{
				"patchline" : 				{
					"destination" : [ "obj-159", 0 ],
					"source" : [ "obj-110", 0 ]
				}

			}
, 			{
				"patchline" : 				{
					"destination" : [ "obj-113", 0 ],
					"source" : [ "obj-111", 0 ]
				}

			}
, 			{
				"patchline" : 				{
					"destination" : [ "obj-113", 0 ],
					"midpoints" : [ 708.0, 452.5, 655.0, 452.5 ],
					"source" : [ "obj-112", 0 ]
				}

			}
, 			{
				"patchline" : 				{
					"destination" : [ "obj-160", 0 ],
					"source" : [ "obj-113", 0 ]
				}

			}
, 			{
				"patchline" : 				{
					"destination" : [ "obj-116", 0 ],
					"source" : [ "obj-114", 0 ]
				}

			}
, 			{
				"patchline" : 				{
					"destination" : [ "obj-116", 0 ],
					"midpoints" : [ 881.0, 452.5, 828.0, 452.5 ],
					"source" : [ "obj-115", 0 ]
				}

			}
, 			{
				"patchline" : 				{
					"destination" : [ "obj-161", 0 ],
					"source" : [ "obj-116", 0 ]
				}

			}
, 			{
				"patchline" : 				{
					"destination" : [ "obj-149", 1 ],
					"midpoints" : [ 74.5, 191.0, 92.5, 191.0 ],
					"order" : 0,
					"source" : [ "obj-147", 0 ]
				}

			}
, 			{
				"patchline" : 				{
					"destination" : [ "obj-149", 0 ],
					"order" : 1,
					"source" : [ "obj-147", 0 ]
				}

			}
, 			{
				"patchline" : 				{
					"destination" : [ "obj-30", 0 ],
					"midpoints" : [ 74.5, 231.0, 162.0, 231.0 ],
					"order" : 0,
					"source" : [ "obj-149", 0 ]
				}

			}
, 			{
				"patchline" : 				{
					"destination" : [ "obj-40", 0 ],
					"midpoints" : [ 74.5, 231.0, 118.25, 231.0 ],
					"order" : 1,
					"source" : [ "obj-149", 0 ]
				}

			}
, 			{
				"patchline" : 				{
					"destination" : [ "obj-42", 0 ],
					"order" : 2,
					"source" : [ "obj-149", 0 ]
				}

			}
, 			{
				"patchline" : 				{
					"destination" : [ "obj-147", 0 ],
					"source" : [ "obj-150", 0 ]
				}

			}
, 			{
				"patchline" : 				{
					"destination" : [ "obj-153", 0 ],
					"source" : [ "obj-151", 0 ]
				}

			}
, 			{
				"patchline" : 				{
					"destination" : [ "obj-147", 2 ],
					"source" : [ "obj-152", 1 ]
				}

			}
, 			{
				"patchline" : 				{
					"destination" : [ "obj-147", 0 ],
					"midpoints" : [ 148.5, 146.5, 74.5, 146.5 ],
					"source" : [ "obj-152", 0 ]
				}

			}
, 			{
				"patchline" : 				{
					"destination" : [ "obj-147", 1 ],
					"source" : [ "obj-153", 1 ]
				}

			}
, 			{
				"patchline" : 				{
					"destination" : [ "obj-147", 0 ],
					"midpoints" : [ 104.75, 146.5, 74.5, 146.5 ],
					"source" : [ "obj-153", 0 ]
				}

			}
, 			{
				"patchline" : 				{
					"destination" : [ "obj-152", 0 ],
					"source" : [ "obj-154", 0 ]
				}

			}
, 			{
				"patchline" : 				{
					"destination" : [ "obj-53", 0 ],
					"midpoints" : [ 74.5, 372.75, 828.0, 372.75 ],
					"order" : 1,
					"source" : [ "obj-16", 0 ]
				}

			}
, 			{
				"patchline" : 				{
					"destination" : [ "obj-54", 0 ],
					"midpoints" : [ 74.5, 372.75, 164.5, 372.75 ],
					"order" : 5,
					"source" : [ "obj-16", 0 ]
				}

			}
, 			{
				"patchline" : 				{
					"destination" : [ "obj-55", 0 ],
					"order" : 6,
					"source" : [ "obj-16", 0 ]
				}

			}
, 			{
				"patchline" : 				{
					"destination" : [ "obj-56", 0 ],
					"midpoints" : [ 74.5, 372.75, 299.25, 372.75 ],
					"order" : 4,
					"source" : [ "obj-16", 0 ]
				}

			}
, 			{
				"patchline" : 				{
					"destination" : [ "obj-57", 0 ],
					"midpoints" : [ 74.5, 372.75, 492.0, 372.75 ],
					"order" : 3,
					"source" : [ "obj-16", 0 ]
				}

			}
, 			{
				"patchline" : 				{
					"destination" : [ "obj-59", 0 ],
					"midpoints" : [ 74.5, 372.75, 655.0, 372.75 ],
					"order" : 2,
					"source" : [ "obj-16", 0 ]
				}

			}
, 			{
				"patchline" : 				{
					"destination" : [ "obj-7", 0 ],
					"midpoints" : [ 74.5, 373.75, 994.686279, 373.75 ],
					"order" : 0,
					"source" : [ "obj-16", 0 ]
				}

			}
, 			{
				"patchline" : 				{
					"destination" : [ "obj-16", 0 ],
					"source" : [ "obj-24", 0 ]
				}

			}
, 			{
				"patchline" : 				{
					"destination" : [ "obj-24", 2 ],
					"source" : [ "obj-30", 0 ]
				}

			}
, 			{
				"patchline" : 				{
					"destination" : [ "obj-6", 0 ],
					"source" : [ "obj-4", 0 ]
				}

			}
, 			{
				"patchline" : 				{
					"destination" : [ "obj-24", 1 ],
					"source" : [ "obj-40", 0 ]
				}

			}
, 			{
				"patchline" : 				{
					"destination" : [ "obj-24", 0 ],
					"source" : [ "obj-42", 0 ]
				}

			}
, 			{
				"patchline" : 				{
					"destination" : [ "obj-6", 0 ],
					"midpoints" : [ 1040.686279, 459.5, 994.686279, 459.5 ],
					"source" : [ "obj-5", 0 ]
				}

			}
, 			{
				"patchline" : 				{
					"destination" : [ "obj-114", 0 ],
					"source" : [ "obj-53", 0 ]
				}

			}
, 			{
				"patchline" : 				{
					"destination" : [ "obj-115", 0 ],
					"source" : [ "obj-53", 1 ]
				}

			}
, 			{
				"patchline" : 				{
					"destination" : [ "obj-101", 0 ],
					"source" : [ "obj-54", 0 ]
				}

			}
, 			{
				"patchline" : 				{
					"destination" : [ "obj-102", 0 ],
					"source" : [ "obj-54", 1 ]
				}

			}
, 			{
				"patchline" : 				{
					"destination" : [ "obj-79", 0 ],
					"source" : [ "obj-55", 1 ]
				}

			}
, 			{
				"patchline" : 				{
					"destination" : [ "obj-84", 0 ],
					"source" : [ "obj-55", 0 ]
				}

			}
, 			{
				"patchline" : 				{
					"destination" : [ "obj-105", 0 ],
					"source" : [ "obj-56", 0 ]
				}

			}
, 			{
				"patchline" : 				{
					"destination" : [ "obj-106", 0 ],
					"source" : [ "obj-56", 1 ]
				}

			}
, 			{
				"patchline" : 				{
					"destination" : [ "obj-108", 0 ],
					"source" : [ "obj-57", 0 ]
				}

			}
, 			{
				"patchline" : 				{
					"destination" : [ "obj-109", 0 ],
					"source" : [ "obj-57", 1 ]
				}

			}
, 			{
				"patchline" : 				{
					"destination" : [ "obj-111", 0 ],
					"source" : [ "obj-59", 0 ]
				}

			}
, 			{
				"patchline" : 				{
					"destination" : [ "obj-112", 0 ],
					"source" : [ "obj-59", 1 ]
				}

			}
, 			{
				"patchline" : 				{
					"destination" : [ "obj-8", 0 ],
					"source" : [ "obj-6", 0 ]
				}

			}
, 			{
				"patchline" : 				{
					"destination" : [ "obj-4", 0 ],
					"source" : [ "obj-7", 0 ]
				}

			}
, 			{
				"patchline" : 				{
					"destination" : [ "obj-5", 0 ],
					"source" : [ "obj-7", 1 ]
				}

			}
, 			{
				"patchline" : 				{
					"destination" : [ "obj-156", 0 ],
					"source" : [ "obj-73", 0 ]
				}

			}
, 			{
				"patchline" : 				{
					"destination" : [ "obj-73", 0 ],
					"midpoints" : [ 120.5, 452.5, 74.5, 452.5 ],
					"source" : [ "obj-79", 0 ]
				}

			}
, 			{
				"patchline" : 				{
					"destination" : [ "obj-73", 0 ],
					"source" : [ "obj-84", 0 ]
				}

			}
 ],
		"dependency_cache" : [ 			{
				"name" : "Quarter.png",
				"bootpath" : "~/Documents/Max/Beat_Canvas",
				"patcherrelativepath" : ".",
				"type" : "PNG ",
				"implicit" : 1
			}
, 			{
				"name" : "TripletEighthQuarter.png",
				"bootpath" : "~/Documents/Max/Beat_Canvas",
				"patcherrelativepath" : ".",
				"type" : "PNG ",
				"implicit" : 1
			}
, 			{
				"name" : "TripletEighthRestQuarter.png",
				"bootpath" : "~/Documents/Max/Beat_Canvas",
				"patcherrelativepath" : ".",
				"type" : "PNG ",
				"implicit" : 1
			}
, 			{
				"name" : "TripletEighthRestTwoEighths.png",
				"bootpath" : "~/Documents/Max/Beat_Canvas",
				"patcherrelativepath" : ".",
				"type" : "PNG ",
				"implicit" : 1
			}
, 			{
				"name" : "Triplets.png",
				"bootpath" : "~/Documents/Max/Beat_Canvas",
				"patcherrelativepath" : ".",
				"type" : "PNG ",
				"implicit" : 1
			}
, 			{
				"name" : "TripletQuarterRestEighth.png",
				"bootpath" : "~/Documents/Max/Beat_Canvas",
				"patcherrelativepath" : ".",
				"type" : "PNG ",
				"implicit" : 1
			}
, 			{
				"name" : "TripletQuarterEighth.png",
				"bootpath" : "~/Documents/Max/Beat_Canvas",
				"patcherrelativepath" : ".",
				"type" : "PNG ",
				"implicit" : 1
			}
 ],
		"autosave" : 0
	}

}
